<svg xmlns="http://www.w3.org/2000/svg" width="368" height="242" viewBox="0 0 368 242">
    <defs>
        <linearGradient id="a" x1="50%" x2="50%" y1="0%" y2="100%">
            <stop offset="0%" stop-color="#5ABCBF"/>
            <stop offset="100%" stop-color="#46B6C4"/>
        </linearGradient>
    </defs>
    <g fill="none" fill-rule="evenodd">
        <path fill="#5A5A5A" fill-rule="nonzero" d="M258.5 47.5v132h119v-132h-119zm120-1v134h-121v-134h121zM246.812 179.5H122.5v-132h11v-1h-12v134h126.312v-134H164.5v1h82.312z"/>
        <path fill="#B3B3B3" fill-rule="nonzero" d="M32.965 55.626l1.378 13.113c.041.39.402.688.804.645.39-.04.693-.4.651-.798L34.42 55.473a.734.734 0 0 0-.803-.645.736.736 0 0 0-.652.798zm-1.38.145a2.124 2.124 0 0 1 1.887-2.323 2.121 2.121 0 0 1 2.328 1.88l1.378 13.113a2.124 2.124 0 0 1-1.886 2.323 2.121 2.121 0 0 1-2.328-1.88l-1.379-13.113zM31.284 39.631l.686 6.528a.733.733 0 0 0 .805.663.745.745 0 0 0 .65-.815l-.686-6.529a.733.733 0 0 0-.805-.662.745.745 0 0 0-.65.815zm-1.38.145a2.132 2.132 0 0 1 1.885-2.34 2.12 2.12 0 0 1 2.33 1.897l.686 6.529a2.132 2.132 0 0 1-1.885 2.34 2.12 2.12 0 0 1-2.33-1.898l-.686-6.528zM34.954 74.55l1.378 13.112c.041.39.402.688.804.646.39-.041.693-.4.651-.799l-1.378-13.112a.734.734 0 0 0-.803-.646.736.736 0 0 0-.652.799zm-1.38.145a2.124 2.124 0 0 1 1.887-2.324 2.121 2.121 0 0 1 2.328 1.88l1.378 13.113a2.124 2.124 0 0 1-1.886 2.324 2.121 2.121 0 0 1-2.329-1.88l-1.378-13.113z"/>
        <path fill="#B3B3B3" d="M126.447 5.979c7.382-.776 13.997 4.601 14.776 12.011l1.558 14.823-1.686-2.77-1.252-11.908c-.675-6.426-6.24-11.146-12.587-10.828l-.809-1.328z"/>
        <path fill="#B3B3B3" fill-rule="nonzero" d="M69.91 236.022c-7.382.776-13.998-4.605-14.776-12.011l-.852-8.106 1.614 2.077.618 5.883c.667 6.351 6.115 11.039 12.37 10.837l1.026 1.32zM47.726 15.94l67.42-7.086 9.118-2.354-76.683 8.06c-7.375.775-12.732 7.41-11.954 14.82l1.36-.352c-.579-6.562 4.194-12.4 10.739-13.088zM146.16 102.358l1.38-.147-8.007-75.05a.963.963 0 0 0-1.06-.86L39.294 36.723a.964.964 0 0 0-.86 1.06l18.54 176.398a.964.964 0 0 0 1.062.859l49.957-5.294-.147-1.38-49.536 5.25L39.86 38.06l98.338-10.336 7.961 74.634z"/>
        <path fill="#B3B3B3" fill-rule="nonzero" d="M71.735 22.2a1.173 1.173 0 1 0-.247-2.334 1.173 1.173 0 0 0 .247 2.333zm.145 1.38a2.56 2.56 0 1 1-.534-5.094 2.56 2.56 0 0 1 .534 5.093zM79.862 17.674l14.546-1.53.23 2.184-14.547 1.529zM40.407 160.75c-.057-2.153-.016-5.23.15-9.384.286-7.187.05-11.845-.418-14.481a12.946 12.946 0 0 0-.046-.245c.206-.332.451-.792.684-1.355.14-.34.263-.691.364-1.05l-1.337-.374a8.367 8.367 0 0 1-.801 1.891c-.1.174-.177.293-.216.348l-.19.266.085.315c.015.058.047.204.09.446.45 2.53.68 7.09.398 14.183-.296 7.433-.198 11.164.084 12.483.029.135.058.23.09.299l.375.819 4.033-3.311-.88-1.073-2.384 1.957a36.147 36.147 0 0 1-.081-1.734zM17.218 104.502a458.813 458.813 0 0 1-.385-4.91 401.97 401.97 0 0 1-.636-10.437c-.362-7.802-.291-13.188.31-14.619.18-.427.83-.486 2-.077.44.153.915.363 1.412.616a18.448 18.448 0 0 1 1.64.95c.127.26.313.572.564.882.586.723 1.318 1.149 2.194 1.057 3.364-.354 7.712 1.565 10.162 4.674l1.09-.86c-2.74-3.475-7.55-5.599-11.397-5.194-.325.034-.65-.156-.97-.55a3.189 3.189 0 0 1-.45-.739l-.25-.31a19.817 19.817 0 0 0-1.952-1.146 12.82 12.82 0 0 0-1.585-.69c-1.782-.622-3.17-.497-3.737.85-.724 1.722-.794 7.086-.417 15.22.155 3.34.378 6.909.638 10.474a460.195 460.195 0 0 0 .357 4.578l-1.755 4.03.429 4.08-4.612 10.51-1.384 5.423c-.025.022-.144.285-.294.637a32.11 32.11 0 0 0-.72 1.835c-.11.31-.212.615-.306.915-.44 1.407-1.444 9.593-1.696 14.212a79.697 79.697 0 0 1-1.882 13.368c-.612 2.71-3.16 11.385-3.064 12.296l1.38-.145c-.062-.591 2.353-8.817 3.038-11.845a81.076 81.076 0 0 0 1.914-13.599c.245-4.507 1.239-12.609 1.634-13.873.088-.282.185-.57.29-.864a30.74 30.74 0 0 1 1.006-2.47l1.392-5.442 4.648-10.57-.355-4.249 1.75-4.018z"/>
        <path fill="#B3B3B3" fill-rule="nonzero" d="M17.19 108.012c.091-.026.25-.077.468-.154.357-.127.75-.283 1.171-.472a16.515 16.515 0 0 0 3.475-2.086c3.462-2.732 5.174-6.517 4.215-11.42-.876-4.478-1.55-7.89-2.049-10.38a662.11 662.11 0 0 0-.548-2.708l-1.358.283.123.602c.109.532.248 1.225.423 2.095.498 2.488 1.172 5.898 2.047 10.374.852 4.352-.633 7.635-3.713 10.064a15.145 15.145 0 0 1-3.182 1.91c-.386.173-.745.316-1.068.43a7.32 7.32 0 0 1-.386.128l.382 1.334zM8.714 132.92c.052-.18.23-.518.59-.889.633-.651 1.584-1.108 2.95-1.252l-.145-1.38c-1.686.177-2.94.78-3.8 1.665-.536.551-.82 1.09-.93 1.478l1.335.379zM40.689 168.95c1.195 1.62 2.71 4.806 4.552 9.92l1.306-.471c-2.742-7.61-4.723-11.031-6.237-11.708l.303-3.243-1.382-.129-.505 5.406 1.043-.725c.22.123.531.423.92.95z"/>
        <path fill="#B3B3B3" fill-rule="nonzero" d="M15.387 108.853a9.53 9.53 0 0 1 .558-.378 17.338 17.338 0 0 1 1.6-.897c3.048-1.51 6.306-2.153 9.468-1.366l.335-1.347c-3.53-.879-7.103-.174-10.42 1.47-.641.317-1.22.647-1.727.97-.309.195-.528.348-.648.439l.834 1.109zM151.364 230.174a1.388 1.388 0 1 1 .29 2.76l-82.93 8.716c-8.965.942-17-5.57-17.943-14.54L36.541 90.56a1.388 1.388 0 1 1 2.761-.287l14.24 136.548c.782 7.446 7.452 12.851 14.893 12.069l82.93-8.716zM149.294 45.074l1.312 12.479a2.342 2.342 0 0 1-.76 1.985l5.923 56.36a1.388 1.388 0 0 1-2.76.29L146.988 58.9a1.388 1.388 0 0 1 .82-1.415l-1.236-11.761a1.388 1.388 0 0 1-1.097-1.214L142.4 15.245c-.783-7.445-7.453-12.85-14.894-12.068l-82.93 8.716c-7.439.782-12.841 7.456-12.061 14.878l1.234 10.056a1.388 1.388 0 1 1-2.754.338l-1.237-10.08c-.943-8.97 5.565-17.01 14.528-17.952l82.93-8.716c8.966-.942 17 5.57 17.944 14.538l2.978 28.336a2.344 2.344 0 0 1 1.156 1.783z"/>
        <path fill="url(#a)" d="M0 17.269C0 7.732 7.735 0 17.269 0h43.165c9.538 0 17.27 7.735 17.27 17.269v43.165c0 9.538-7.735 17.27-17.27 17.27H17.27C7.732 77.703 0 69.968 0 60.433V17.27z" transform="rotate(-8 365.993 -340.914)"/>
        <g fill="#FFF" fill-rule="nonzero">
            <path d="M90.677 52.962a.441.441 0 0 1 .437-.061l26.23 10.58a.441.441 0 0 1 .107.757l-22.298 17.4a.441.441 0 0 1-.437.062l-26.23-10.58a.441.441 0 0 1-.107-.758l22.298-17.4zM69.526 70.587l25.284 10.2 21.494-16.774L91.02 53.815 69.526 70.587z"/>
            <path d="M69.255 71.84l3.79 26.973 25.45 10.207-3.735-27.007L69.255 71.84zm30.22 37.81a.441.441 0 0 1-.6.472L72.48 99.54a.441.441 0 0 1-.274-.349l-3.932-27.98a.441.441 0 0 1 .6-.472l26.45 10.55c.098.048.146.089.184.137.038.05.066.106.081.167a.484.484 0 0 1-.019.269.441.441 0 0 1-.573.247l-.238-.095-.036-.254a.441.441 0 0 1 .593-.475c.104.051.153.092.192.14a.439.439 0 0 1 .081.168c.004.014 3.886 28.059 3.886 28.059z"/>
            <path d="M98.386 109.39a.441.441 0 1 0 .54.699l22.518-17.432a.441.441 0 0 0 .167-.41l-3.933-27.981a.441.441 0 0 0-.874.123l3.897 27.727-22.315 17.274z"/>
            <path d="M95.692 107.827l-17.731-12.46-4.464 3.491 22.195 8.97zM72.79 98.572l.708.286-.601.47a.441.441 0 0 1-.62-.075c-.095-.146-.11-.277-.076-.396a.44.44 0 0 1 .152-.224l5.323-4.164a.441.441 0 0 1 .525-.014l21.148 14.862c.43.302.067.967-.42.77L72.458 99.39a.44.44 0 0 1-.258-.533.476.476 0 0 1 .158-.228c.166-.097.304-.109.431-.057z"/>
            <path d="M77.334 94.872l-7.63-19.942 3.271 23.376 4.359-3.434zm-5.127 4.318l-3.916-27.983c-.073-.52.662-.71.85-.22l9.134 23.873c.069.18.012.385-.14.505l-5.217 4.11a.44.44 0 0 1-.62-.073.44.44 0 0 1 .073-.62l.604-.476.107.761a.441.441 0 1 1-.875.123zM115.243 90.414l-13.515 16.494 18.55-14.625-5.035-1.869zm6.334 1.87a.44.44 0 0 1-.152.225L99.24 109.972c-.414.323-.945-.216-.615-.625l16.136-19.742a.441.441 0 0 1 .51-.132l6.047 2.279a.44.44 0 0 1 .259.533.476.476 0 0 1-.158.228.441.441 0 0 1-.432.057l-.708-.287.602-.47a.441.441 0 0 1 .62.076c.095.146.11.277.076.396z"/>
            <path d="M115.5 90.084l2.18-25.72a.441.441 0 1 0-.879-.074l-2.181 25.72a.441.441 0 0 0 .88.074z"/>
            <path d="M92.052 59.571l21.36 3.292-22.139-8.83.779 5.538zm-1.427-6.659a.44.44 0 0 1 .269.019l26.45 10.55c.487.194.288.926-.232.846l-25.52-3.933a.441.441 0 0 1-.37-.375l-.929-6.617a.44.44 0 0 1 .332-.49.477.477 0 0 1 .276.022.441.441 0 0 1 .266.345l.106.754-.706-.282a.441.441 0 0 1-.247-.574.485.485 0 0 1 .138-.184.444.444 0 0 1 .167-.08z"/>
            <path d="M71.988 68.685l19.626-9.052-.778-5.539-18.848 14.59zm19.62-15.394a.44.44 0 0 1-.17.337l-.602.466-.106-.753a.441.441 0 0 1 .376-.499.485.485 0 0 1 .228.028.444.444 0 0 1 .27.348l.93 6.617a.441.441 0 0 1-.252.462L68.835 71.112c-.477.22-.87-.429-.455-.75L90.897 52.93a.44.44 0 0 1 .59.045.477.477 0 0 1 .122.316zM96.378 92.611a.441.441 0 0 1-.446.06l-9.848-4.148a.441.441 0 0 1-.093-.761l8.559-6.37a.441.441 0 0 1 .422-.058l9.805 3.79a.441.441 0 0 1 .114.758l-8.513 6.73zm7.359-6.943l-8.856-3.422-7.743 5.763 8.897 3.748 7.702-6.089z"/>
            <path d="M104.1 85.03l-1.34-9.535-9.025-3.945 1.404 9.989 8.961 3.49zM92.75 70.89a.441.441 0 0 1 .615-.466l9.975 4.36c.14.062.24.192.26.343l1.48 10.526a.441.441 0 0 1-.598.473l-9.905-3.859a.441.441 0 1 1 .321-.822l.24.094.037.256a.441.441 0 0 1-.866.168L92.751 70.89z"/>
            <path d="M85.273 77.958l8.627-6.845a.441.441 0 0 0-.55-.692l-8.824 7.003a.441.441 0 0 0-.162.407l1.479 10.526c.046.33.428.492.698.295l8.894-6.501a.441.441 0 0 0-.52-.713l-8.3 6.066-1.342-9.546z"/>
            <path d="M91.796 60.927l3.235 23.018a.441.441 0 1 0 .875-.123l-3.318-23.609a.441.441 0 0 0-.624-.338L68.535 70.818a.441.441 0 0 0 .02.81l16.346 6.667a.441.441 0 1 0 .334-.818l-15.411-6.286 21.972-10.264zM86.917 88.141a.441.441 0 1 0-.56-.683l-8.378 6.865a.441.441 0 0 0 .026.703l20.246 14.294a.441.441 0 0 0 .507-.723l-19.77-13.96 7.929-6.496z"/>
            <path d="M98.25 109.026a.441.441 0 0 0 .69.553l16.546-19.487a.441.441 0 0 0-.173-.684l-10.523-4.542a.441.441 0 0 0-.343.813l9.984 4.316-16.18 19.03z"/>
        </g>
        <g>
            <path fill="#262626" d="M221.395 237.479s-36.384-.466-39.261-1.348c-2.877-.883-5.653-2.907-10.792-4.455s-15.716-3.393-21.29-4.548c-5.576-1.155-15.094-6.284-20.804-8.702-5.053-.397-13.284-4.618-13.284-4.618s-2.51-4.514-.82-7.812c1.689-3.297 4.454-3.929 4.454-3.929s.36.006.963.046c1.443-.721 6.692-3.07 14.263-3.33 8.958-.307 23.52 1.934 27.301 4.389-.605-.81 16.05 5.585 22.692-3.685 2.716-3.792-1.485-8.496-4.866-14.324-.875-1.507 3.994 12.14-8.226 14.886-12.22 2.748-15.095-17.807-15.322-19.972-.715-6.8-1.195-19.91-1.262-21.807-2.711-1.71-24.56-22.692-26.443-25.424-3.132-2.189-16.32-14.138-17.548-16.248-3.14-2.024-13.567-13.587-15.589-17.27-2.021-3.684-.928-8.833-.928-8.833s-2.197-2.973-2.423-5.126c1.593-2.768 4.723-4.493 8.097-3.452 3.374 1.041 11.23 8.327 11.23 8.327l3.993 1.395s15.471 12.597 21.584 17.092c6.112 4.496 26.426 21.27 29.207 22.447 2.78 1.176 8.788 2.013 10.862 1.795 2.075-.218 9.186-6.199 11.299-7.722 2.113-1.522 5.3-4.301 10.82-4.882 3.328-.35 42.895 36.185 68.91 67.93 26.014 31.745 24.903 41.642 24.903 41.642l-71.72 7.538z"/>
            <path fill="#B3B3B3" fill-rule="nonzero" d="M100.117 82.724c.979.302 2.53 1.258 4.457 2.705.486.366.991.758 1.512 1.174a97.234 97.234 0 0 1 3.497 2.947 102.413 102.413 0 0 1 1.498 1.346l4.12 1.502a968.646 968.646 0 0 0 3.524 2.855 1393.115 1393.115 0 0 0 8.442 6.77c4.17 3.314 7.462 5.875 9.55 7.411 2.13 1.566 1.673 1.205 13.639 10.712 9.762 7.753 14.307 11.221 15.71 11.814 2.699 1.142 8.82 2.097 11.205 1.846 1.115-.117 3.081-1.343 6.086-3.586.282-.21.572-.43.873-.658.792-.603 4.168-3.24 4.673-3.604.152-.11.31-.226.534-.392a209 209 0 0 1 .569-.422c.48-.355.866-.63 1.267-.9 2.503-1.688 4.992-2.713 8.116-3.04 2.29-.242 4.581.187 6.761 1.078.767.313 1.463.661 2.075 1.018.363.21.613.375.737.464l.812-1.125a11.08 11.08 0 0 0-.851-.539 18.068 18.068 0 0 0-2.248-1.102c-2.377-.971-4.89-1.442-7.43-1.175-3.373.355-6.07 1.464-8.748 3.27-.42.283-.82.57-1.315.934l-.572.425c-.22.163-.373.275-.519.38-.53.383-3.929 3.038-4.701 3.626-.298.226-.585.442-.862.65-2.727 2.035-4.66 3.24-5.402 3.318-2.148.226-8.034-.692-10.52-1.744-1.214-.513-5.931-4.113-15.125-11.415-12.267-9.745-11.79-9.368-13.941-10.95-2.071-1.524-5.352-4.076-9.51-7.38l-.412-.328a1391.771 1391.771 0 0 1-11.635-9.364l-4.066-1.465a103.795 103.795 0 0 0-1.417-1.271 98.59 98.59 0 0 0-3.548-2.99 64.55 64.55 0 0 0-1.545-1.2c-2.05-1.54-3.702-2.557-4.88-2.92-3.518-1.086-7.046.54-8.904 3.768l-.088.419c.059.563.232 1.18.5 1.845.233.58.534 1.183.884 1.796.261.458.535.896.806 1.3.18.313.174.355.166.4a17.8 17.8 0 0 0-.142 1.116c-.179 1.845-.112 3.721.328 5.453.212.834.506 1.607.891 2.309 2.053 3.74 12.319 15.137 15.693 17.435 1.65 2.404 13.952 13.681 17.557 16.25 2.332 3.133 23.741 23.732 26.158 25.193.437.264 1.754 1.617 3.947 4.042 1.24 1.372 6.348 7.124 7.053 7.912l.833.93c5.903 6.567 9.444 10.161 11.242 11.083.527 1.422 1.46 2.969 2.934 5.028.276.385.563.779.941 1.291 3.067 4.155 3.837 5.366 3.972 6.652.313 2.978-.891 4.994-4.395 7.215-3.194 2.025-9.533 1.937-18.998.028-4.104-2.537-18.144-4.937-27.09-4.63-4.35.148-8.28.969-11.685 2.196-.919.33-1.73.668-2.424.993-.422.198-.715.35-.873.44l.684 1.207c.127-.072.388-.208.777-.39a27.166 27.166 0 0 1 2.307-.945c3.275-1.18 7.064-1.971 11.262-2.115 8.773-.3 22.74 2.104 26.401 4.48 10.124 2.103 16.76 2.204 20.382-.092 3.916-2.482 5.405-4.977 5.032-8.532-.175-1.665-.93-2.852-4.235-7.33-.375-.508-.659-.898-.93-1.276-1.5-2.095-2.4-3.614-2.85-4.95l-.413-.43c-1.352-.506-5.044-4.214-11.008-10.851l-.832-.927c-.701-.785-5.813-6.54-7.058-7.917-2.347-2.597-3.643-3.928-4.258-4.3-2.273-1.374-24.031-22.319-25.81-24.899-3.573-2.55-16.45-14.363-17.519-16.203-3.257-2.19-13.608-13.662-15.58-17.256a8.416 8.416 0 0 1-.763-1.983c-.395-1.554-.456-3.279-.292-4.977.063-.647.141-1.132.197-1.394l-.121-.557a19.881 19.881 0 0 1-1.082-1.687c-.321-.562-.594-1.11-.802-1.626a6.246 6.246 0 0 1-.377-1.254c1.575-2.557 4.38-3.796 7.172-2.935z"/>
            <path fill="#B3B3B3" fill-rule="nonzero" d="M116.099 212.992c-.468-1.196-.76-2.426-.77-3.58-.007-.886.156-1.682.509-2.37a7.947 7.947 0 0 1 1.127-1.662 6.792 6.792 0 0 1 1.99-1.556c.349-.178.627-.283.799-.332a31.969 31.969 0 0 1 1.85.124c1.471.141 2.95.375 4.339.722 1.47.368 2.75.843 3.774 1.43l.69-1.204c-1.149-.658-2.543-1.175-4.128-1.572a31.133 31.133 0 0 0-4.542-.757 33.348 33.348 0 0 0-1.48-.11c-.27-.014-.464-.02-.57-.022l-.167.017c-.972.222-2.327.914-3.592 2.339a9.333 9.333 0 0 0-1.325 1.95c-.462.902-.67 1.917-.66 3.015.01 1.346.34 2.733.864 4.073.142.364.288.696.431.992.088.18.156.311.197.385l.102.184.187.096a66.141 66.141 0 0 0 1.654.802 70.762 70.762 0 0 0 3.983 1.72c1.152.454 2.265.852 3.322 1.182 1.693.528 3.197.867 4.473.98 1.032.439 2.226.98 3.85 1.74.565.265 3.644 1.717 4.544 2.138.695.324 1.329.617 1.935.893 4.658 2.125 7.97 3.403 10.502 3.928 1.612.334 9.047 1.775 10.262 2.017.898.179 1.734.348 2.526.512 3.734.772 6.524 1.425 8.443 2.003l.4-1.328c-1.969-.593-4.79-1.254-8.562-2.034-.796-.164-1.635-.334-2.536-.514-1.223-.244-8.65-1.683-10.251-2.015-2.399-.497-5.641-1.748-10.208-3.831-.603-.275-1.233-.566-1.924-.889-.897-.419-3.975-1.87-4.543-2.136a119.804 119.804 0 0 0-4-1.806l-.215-.052c-1.181-.093-2.63-.415-4.283-.93a47.114 47.114 0 0 1-3.226-1.149 69.393 69.393 0 0 1-5.32-2.368c-.12-.24-.281-.59-.451-1.025zM154.454 158.206l.023.647.067 1.768c.074 1.867.16 3.85.256 5.861.081 1.675.166 3.299.255 4.844.212 3.665.436 6.72.673 8.967.715 6.801 4.32 15.3 6.844 18.025 2.54 2.741 6.678 4.244 10.426 2.683 4.007-1.668 6.31-4.455 7.09-8.135.175-.824.27-1.778.295-2.837.042-1.71-.09-3.475-.287-4.99a17.4 17.4 0 0 0-.043-.313l-1.372.206.04.286c.188 1.45.315 3.151.275 4.777-.024.98-.11 1.852-.265 2.583-.687 3.234-2.682 5.65-6.266 7.142-3.131 1.304-6.693.01-8.875-2.345-2.313-2.495-5.798-10.713-6.482-17.227-.234-2.221-.457-5.257-.667-8.902-.09-1.54-.174-3.16-.255-4.83a674.277 674.277 0 0 1-.345-8.257l-1.387.047z"/>
            <path fill="#B3B3B3" fill-rule="nonzero" d="M162.555 179.842c-.032.003 1.845.67 3.053.965 2.485.605 5.329.807 8.76.447l-.145-1.38c-3.27.343-5.955.153-8.287-.415-.912-.222-3.19-1.033-3.526-.997l.145 1.38zM129.429 219.517c2.275.155 3.61-.987 4.07-3.139.322-1.508.257-3.147-.103-6.42l-.044-.405c-.062-.553-.088-.795-.12-1.097l-1.38.145c.032.305.059.549.12 1.105l.045.405c.343 3.114.404 4.67.125 5.977-.322 1.51-1.071 2.15-2.62 2.045l-.093 1.384zM146.485 224.427a68.781 68.781 0 0 1-.187-2.057 66.585 66.585 0 0 1-.194-3.918c-.023-1.344.012-2.513.116-3.452l-1.38-.151c-.11 1.005-.147 2.23-.124 3.626.022 1.278.094 2.637.199 4.002.067.867.134 1.583.187 2.072l.004.03 1.379-.152zM94.008 90.377c.044.059.125.163.24.307a25.357 25.357 0 0 0 2.966 3.1c2.439 2.142 4.853 3.343 7.131 3.104 1.737-.183 3.053-.58 4.52-1.295.367-.18.736-.374 1.237-.647-.045.025.994-.546 1.307-.715.754-.406 1.239-.889 1.452-1.45.28-.734.069-1.429-.401-2.026a2.785 2.785 0 0 0-.426-.44l-.869 1.08c.039.032.12.11.204.218.2.253.269.481.196.674-.082.215-.33.462-.813.722-.32.172-1.364.746-1.315.719-.484.264-.837.45-1.18.618-1.327.647-2.488.997-4.057 1.162-1.795.189-3.896-.857-6.07-2.767a23.99 23.99 0 0 1-2.184-2.195 18.624 18.624 0 0 1-.83-1.002l-1.108.833zM165.511 131.937a35.643 35.643 0 0 0 1.265.718c.98.53 2.037 1.05 3.135 1.525 1.627.704 3.201 1.245 4.673 1.57 1.357.3 2.594.407 3.693.291l-.145-1.38c-.934.099-2.027.004-3.249-.266-1.375-.304-2.87-.817-4.42-1.489a38.894 38.894 0 0 1-3.027-1.472 27.782 27.782 0 0 1-1.2-.68l-.725 1.183zM208.008 123.352l.422.347a454.835 454.835 0 0 1 5.48 4.606 431.293 431.293 0 0 1 13.06 11.592 289.44 289.44 0 0 1 4.414 4.176c4.754 4.6 8.56 8.644 11.18 11.965 3.224 4.085 7.968 10.322 13.832 18.155l.6.8a3887.412 3887.412 0 0 1 17.646 23.817l.401.548 1.12-.82-.403-.549-1.138-1.548a3887.792 3887.792 0 0 0-16.516-22.278l-.6-.801c-5.87-7.842-10.62-14.087-13.853-18.184-2.666-3.378-6.51-7.464-11.305-12.102a290.818 290.818 0 0 0-4.435-4.197 432.648 432.648 0 0 0-13.102-11.63 456.228 456.228 0 0 0-5.498-4.62l-.427-.351-.878 1.074z"/>
        </g>
    </g>
</svg>
