<?xml version="1.0" encoding="UTF-8" standalone="no"?>
<svg width="20px" height="52px" viewBox="0 0 20 52" version="1.1" xmlns="http://www.w3.org/2000/svg" xmlns:xlink="http://www.w3.org/1999/xlink">
    <!-- Generator: Sketch 41.2 (35397) - http://www.bohemiancoding.com/sketch -->
    <title>scroll-down</title>
    <desc>Created with Sketch.</desc>
    <defs></defs>
    <g id="Page-1" stroke="none" stroke-width="1" fill="none" fill-rule="evenodd">
        <g id="Udviser-Home-1440" transform="translate(-710.000000, -711.000000)" fill="#FFFFFF">
            <g id="scroll-down" transform="translate(710.000000, 711.000000)">
                <g id="bot-scroll" transform="translate(1.000000, 41.000000)">
                    <path d="M13.9899948,5.44812583 C14.0066441,5.17276765 13.9091203,4.89237036 13.6986506,4.68190062 L5.91835799,-3.098392 C5.52873303,-3.48801696 4.89572773,-3.48785728 4.50520344,-3.09733299 C4.11195648,-2.70408603 4.11420501,-2.07411785 4.50414443,-1.68417844 L11.624684,5.43636109 L4.50414443,12.5569006 C4.11451946,12.9465256 4.11467915,13.5795309 4.50520344,13.9700552 C4.89845039,14.3633021 5.52841857,14.3610536 5.91835799,13.9711142 L13.6986506,6.19082156 C13.9027203,5.98675187 13.9998628,5.71591717 13.9899948,5.44812583 Z" id="Combined-Shape" transform="translate(9.101398, 5.436931) rotate(-270.000000) translate(-9.101398, -5.436931) "></path>
                </g>
                <g id="top-scroll">
                    <path d="M0,9.50069394 C0,4.25360557 4.25372228,0 9.50213615,0 L10.4978639,0 C15.7457487,0 20,4.24661525 20,9.50069394 L20,23.4993061 C20,28.7463944 15.7462777,33 10.4978639,33 L9.50213615,33 C4.25425126,33 0,28.7533848 0,23.4993061 L0,9.50069394 Z M10,5 C11.1045695,5 12,5.88743329 12,6.99961498 L12,13.000385 C12,14.1047419 11.1122704,15 10,15 C8.8954305,15 8,14.1125667 8,13.000385 L8,6.99961498 C8,5.89525812 8.88772964,5 10,5 Z" id="Combined-Shape"></path>
                </g>
            </g>
        </g>
    </g>
</svg>