<?xml version="1.0" encoding="UTF-8" standalone="no"?>
<svg width="50px" height="50px" viewBox="0 0 50 50" version="1.1" xmlns="http://www.w3.org/2000/svg" xmlns:xlink="http://www.w3.org/1999/xlink">
    <!-- Generator: sketchtool 41.2 (35397) - http://www.bohemiancoding.com/sketch -->
    <title>EA04A171-C723-460A-8743-FEEF91AD3037</title>
    <desc>Created with sketchtool.</desc>
    <defs></defs>
    <g id="Page-1" stroke="none" stroke-width="1" fill="none" fill-rule="evenodd">
        <g id="Udviser-Home-1440-Pop" transform="translate(-700.000000, -201.000000)" fill="#464646">
            <g id="logo" transform="translate(700.000000, 201.000000)">
                <path d="M50,3.8455604 C50,1.72171603 48.2788868,0 46.1544396,0 L3.8455604,0 C1.72171603,0 0,1.72111318 0,3.8455604 L0,46.1544396 C0,48.278284 1.72111318,50 3.8455604,50 L46.1544396,50 C48.278284,50 50,48.2788868 50,46.1544396 L50,3.8455604 Z M32.8881988,17.1428571 L41.4285714,17.1428571 L41.4285714,27.7914345 C41.4285714,32.8286732 40.063149,36.5988902 37.3322632,39.1021988 C34.6013775,41.6055073 30.7640697,42.8571429 25.8202247,42.8571429 C23.3875391,42.8571429 21.2099258,42.55476 19.2873194,41.9499851 C17.3647131,41.3452103 15.7050186,40.4304063 14.3081862,39.2055459 C12.9113538,37.9806854 11.8441271,36.3883907 11.1064741,34.428614 C10.368821,32.4688372 10,30.1799136 10,27.5617743 L10,17.1428571 L17.8571429,17.1428571 L17.8571429,26.3576851 C17.8571429,27.8701543 19.1192715,29.0962529 20.6755484,29.0962529 L25.6390842,29.0962529 C25.6259945,31.7008679 25.6181169,33.8892751 25.6222098,34.8423006 C27.8974299,34.8423006 29.6772124,34.154853 30.9616108,32.7799373 C32.2460092,31.4050215 32.8881988,29.3694625 32.8881988,26.6731992 L32.8881988,17.1428571 Z M17.1428571,15.7142857 L17.1524093,11.217862 C17.1524093,9.75745581 18.3508798,8.57142857 19.8292681,8.57142857 L28.7517127,8.57142857 C30.2298298,8.57142857 31.4285714,9.75627716 31.4285714,11.217862 L31.4285714,15.7142857 L17.1428571,15.7142857 Z" id="Combined-Shape"></path>
            </g>
        </g>
    </g>
</svg>