<?xml version="1.0" encoding="UTF-8" standalone="no"?>
<svg width="112px" height="127px" viewBox="0 0 112 127" version="1.1" xmlns="http://www.w3.org/2000/svg" xmlns:xlink="http://www.w3.org/1999/xlink">
    <!-- Generator: Sketch 41.2 (35397) - http://www.bohemiancoding.com/sketch -->
    <title>udviser-logo-mobile</title>
    <desc>Created with Sketch.</desc>
    <defs>
        <path d="M0,9.99142042 C0,4.47331129 4.47259913,0 9.99142042,0 L76.0085796,0 C81.5266887,0 86,4.47259913 86,9.99142042 L86,76.0085796 C86,81.5266887 81.5274009,86 76.0085796,86 L9.99142042,86 C4.47331129,86 0,81.5274009 0,76.0085796 L0,9.99142042 Z M30.9197324,28.6225641 L16.5384615,28.6225641 L16.5384615,46.9041995 C16.5384615,55.5522054 18.8377183,62.0249699 23.4363008,66.3226872 C28.0348833,70.6204044 34.4965876,72.7692308 42.8216076,72.7692308 C46.918046,72.7692308 50.5849641,72.2500953 53.8224719,71.2118089 C57.0599797,70.1735225 59.8547659,68.6029735 62.2069144,66.500115 C64.5590629,64.3972564 66.3561832,61.6635812 67.598329,58.2990075 C68.8404749,54.9344338 69.4615385,51.0047757 69.4615385,46.5099155 L69.4615385,28.6225641 L56.2307692,28.6225641 L56.2307692,44.4427173 C56.2307692,47.0393468 54.1054506,49.1443309 51.4848109,49.1443309 L43.1266331,49.144331 C43.148675,53.6159727 43.1619403,57.3730626 43.1550481,59.0092308 C39.3237685,59.0092308 36.3267641,57.8290106 34.1639449,55.4685349 C32.0011258,53.1080592 30.9197324,49.6133813 30.9197324,44.9843965 L30.9197324,28.6225641 Z M56.2307692,28.6225641 L56.213845,20.5991917 C56.213845,17.9932579 54.0904278,15.8769231 51.47106,15.8769231 L35.6625174,15.8769231 C33.04363,15.8769231 30.9197324,17.9911548 30.9197324,20.5991917 L30.9197324,28.6225641 L56.2307692,28.6225641 Z" id="path-1"></path>
        <filter x="-50%" y="-50%" width="200%" height="200%" filterUnits="objectBoundingBox" id="filter-2">
            <feOffset dx="0" dy="0" in="SourceAlpha" result="shadowOffsetOuter1"></feOffset>
            <feGaussianBlur stdDeviation="6.5" in="shadowOffsetOuter1" result="shadowBlurOuter1"></feGaussianBlur>
            <feColorMatrix values="0 0 0 0 0.369735216   0 0 0 0 0.210851172   0 0 0 0 0.52861926  0 0 0 0.279353487 0" type="matrix" in="shadowBlurOuter1"></feColorMatrix>
        </filter>
    </defs>
    <g id="Page-1" stroke="none" stroke-width="1" fill="none" fill-rule="evenodd">
        <g id="Udviser-Mob" transform="translate(-103.000000, -74.000000)">
            <g id="Group-6" transform="translate(109.000000, 87.000000)">
                <g id="udviser-logo-mobile">
                    <g id="logo" transform="translate(7.000000, 0.000000)">
                        <g id="Group-14">
                            <g id="Combined-Shape" transform="translate(43.000000, 43.000000) scale(-1, 1) translate(-43.000000, -43.000000) ">
                                <use fill="black" fill-opacity="1" filter="url(#filter-2)" xlink:href="#path-1"></use>
                                <use fill="#DEFCFF" fill-rule="evenodd" xlink:href="#path-1"></use>
                            </g>
                        </g>
                    </g>
                    <text id="UDVISER-Copy-2" font-family="GothamPro-Medium, Gotham Pro" font-size="17" font-weight="400" letter-spacing="3.64285707" fill="#DEFCFF">
                        <tspan x="0.21142602" y="113">UDVISER</tspan>
                    </text>
                </g>
            </g>
        </g>
    </g>
</svg>