<?xml version="1.0" encoding="UTF-8"?>
<svg width="40px" height="48px" viewBox="0 0 40 48" version="1.1" xmlns="http://www.w3.org/2000/svg" xmlns:xlink="http://www.w3.org/1999/xlink">
    <!-- Generator: Sketch 48.2 (47327) - http://www.bohemiancoding.com/sketch -->
    <title>noun_1351386_cc</title>
    <desc>Created with Sketch.</desc>
    <defs></defs>
    <g id="Icons-&amp;-AR" stroke="none" stroke-width="1" fill="none" fill-rule="evenodd" transform="translate(-1157.000000, -92.000000)">
        <g id="noun_1351386_cc" transform="translate(1175.000000, 114.000000) rotate(-22.000000) translate(-1175.000000, -114.000000) translate(1160.000000, 91.000000)" fill="#FFFFFF" fill-rule="nonzero">
            <g id="Group">
                <path d="M27.3125,9.96666667 L16.53125,0.8625 C15.5729167,0.0479166667 14.1354167,0.0479166667 13.1291667,0.8625 L2.39583333,9.96666667 C1.00625,11.1166667 0.239583333,12.8416667 0.239583333,14.6625 L0.239583333,43.125 C0.239583333,44.5625 1.4375,45.7604167 2.875,45.7604167 L26.9291667,45.7604167 C28.3666667,45.7604167 29.5645833,44.5625 29.5645833,43.125 L29.5645833,14.6625 C29.5166667,12.8416667 28.7020833,11.1166667 27.3125,9.96666667 Z M14.8541667,9.58333333 C17.0104167,9.58333333 18.7833333,11.35625 18.7833333,13.5125 C18.7833333,15.66875 17.0104167,17.4416667 14.8541667,17.4416667 C12.6979167,17.4416667 10.925,15.66875 10.925,13.5125 C10.925,11.3083333 12.6979167,9.58333333 14.8541667,9.58333333 Z M5.27083333,26.7375 C5.27083333,24.3895833 5.98958333,22.4729167 8.96041667,22.4729167 C11.93125,22.4729167 12.65,24.3895833 12.65,26.7375 C12.65,29.0854167 11.93125,31.0020833 8.96041667,31.0020833 C5.98958333,31.0020833 5.27083333,29.0854167 5.27083333,26.7375 Z M9.63125,39.8666667 L7.09166667,39.8666667 C6.80416667,39.8666667 6.6125,39.53125 6.80416667,39.2916667 L19.11875,23.0479167 C19.3104167,22.7604167 19.6458333,22.6166667 20.0291667,22.6166667 L22.5208333,22.6166667 C22.8083333,22.6166667 23,22.9520833 22.8083333,23.1916667 L10.5416667,39.4354167 C10.3020833,39.7229167 9.96666667,39.8666667 9.63125,39.8666667 Z M20.7479167,40.1541667 C17.7291667,40.1541667 17.0583333,38.2375 17.0583333,35.8895833 C17.0583333,33.5416667 17.7770833,31.625 20.7479167,31.625 C23.71875,31.625 24.4375,33.5416667 24.4375,35.8895833 C24.4375,38.2375 23.71875,40.1541667 20.7479167,40.1541667 Z" id="Shape"></path>
                <path d="M9.91875,26.7375 C9.91875,25.6354167 9.91875,24.725 8.96041667,24.725 C8.00208333,24.725 8.00208333,25.6354167 8.00208333,26.7375 C8.00208333,27.8395833 8.00208333,28.75 8.96041667,28.75 C9.91875,28.75 9.91875,27.8395833 9.91875,26.7375 Z" id="Shape"></path>
                <path d="M20.7479167,33.8770833 C19.7895833,33.8770833 19.7895833,34.7875 19.7895833,35.8895833 C19.7895833,36.9916667 19.7895833,37.9020833 20.7479167,37.9020833 C21.70625,37.9020833 21.70625,36.9916667 21.70625,35.8895833 C21.70625,34.7395833 21.70625,33.8770833 20.7479167,33.8770833 Z" id="Shape"></path>
            </g>
        </g>
    </g>
</svg>