<svg xmlns="http://www.w3.org/2000/svg" width="50" height="42" viewBox="0 0 50 42">
    <path fill="#FFF" fill-rule="nonzero" d="M34.952.216l-5.302 3.05c.177.104.325.25.428.428l1.19 2.065a1.19 1.19 0 1 1-2.046 1.19l-1.19-2.065a1.19 1.19 0 0 1-.167-.576L10.212 14.5h23.382a1.19 1.19 0 0 1-.205-.335l-2.38-4.129a1.19 1.19 0 0 1 .855-1.786 1.19 1.19 0 0 1 1.19.596l2.381 4.129a1.19 1.19 0 0 1-.093 1.525h9.3c.624 0 1.191.567 1.191 1.19a4.126 4.126 0 0 0 1.637 3.293A5.32 5.32 0 0 1 50 15.58L42.243 2.17A5.34 5.34 0 0 1 34.952.216zM5.357 15.692A5.357 5.357 0 0 1 0 21.03v15.495a5.357 5.357 0 0 1 5.357 5.357h31.101a1.19 1.19 0 0 1-.148-.595v-2.38a1.19 1.19 0 1 1 2.38 0v2.38a1.19 1.19 0 0 1-.148.595h6.1A5.357 5.357 0 0 1 50 36.525V21.03a5.357 5.357 0 0 1-5.357-5.338h-6.101c.1.182.152.387.148.595v2.381a1.19 1.19 0 1 1-2.38 0v-2.381a1.19 1.19 0 0 1 .148-.595h-31.1zM37.37 21.03a1.19 1.19 0 0 1 1.32 1.21V27a1.19 1.19 0 1 1-2.38 0V22.24a1.19 1.19 0 0 1 1.06-1.209zm0 8.334a1.19 1.19 0 0 1 1.32 1.209v4.762a1.19 1.19 0 1 1-2.38 0v-4.762a1.19 1.19 0 0 1 1.06-1.21zM19 33l-3.527 1.854.674-3.927-2.853-2.781 3.943-.573L19 24l1.763 3.573 3.943.573-2.853 2.781.674 3.927L19 33z"/>
</svg>
