<svg xmlns="http://www.w3.org/2000/svg" width="55" height="40" viewBox="0 0 55 40">
    <path fill="#FFF" fill-rule="nonzero" d="M32.566 9.633c-3.254 0-4.691 2.678-4.691 5.482 0 3.43 2.198 5.146 2.198 6.318 0 .502-.423 1.088-1.226 1.548l-4.818 2.51c-1.395.754-.846 4.394-.846 4.394H41.95s.719-3.557-.845-4.393l-4.776-2.511c-.888-.502-1.31-1.004-1.31-1.465 0-1.046 2.24-2.72 2.24-6.443 0-3.306-1.691-5.44-4.692-5.44zM55 39.6H0V0h55v39.6zM21.62 13.022c-2.706 0-3.931 2.176-3.931 4.561 0 2.887 1.817 4.268 1.817 5.272 0 .377-.253 1.047-1.014 1.423l-4.015 1.925c-1.395.711-.719 3.682-.719 3.682h6.17c.888 0-.76-2.887 1.269-5.147 1.268-1.38 4.31-2.803 4.31-7.03 0-2.928-1.436-4.686-3.888-4.686zM2.261 38.588h4.226v-4.184H2.262v4.184zm0-8.368h4.226v-4.184H2.262v4.184zm0-8.369h4.226v-4.184H2.262v4.184zm0-8.368h4.226V9.298H2.262v4.185zm0-8.369h4.226V.93H2.262v4.184zm46.492 33.474h4.226v-4.184h-4.226v4.184zm0-8.368h4.226v-4.184h-4.226v4.184zm0-8.369h4.226v-4.184h-4.226v4.184zm0-8.368h4.226V9.298h-4.226v4.185zm0-8.369h4.226V.93h-4.226v4.184z"/>
</svg>
