<svg xmlns="http://www.w3.org/2000/svg" width="57" height="57" viewBox="0 0 57 57">
    <g fill="#FFF" fill-rule="nonzero">
        <path d="M33 3.667c0 .179-.097.313-.241.447-.628.492-1.255.984-1.931 1.476-.193.134-.193.268-.145.447.193.716.386 1.431.58 2.192.096.268 0 .491-.242.67-.193.135-.483.135-.773 0-.724-.402-1.4-.805-2.124-1.252-.144-.09-.241-.09-.386 0-.676.403-1.351.805-2.027 1.163-.193.134-.386.179-.628.134-.338-.09-.53-.402-.434-.715.193-.805.434-1.566.627-2.37.049-.135 0-.18-.096-.269-.628-.447-1.207-.94-1.786-1.431-.242-.179-.435-.358-.387-.67 0-.314.242-.537.58-.537.869-.045 1.786-.09 2.655-.18.145 0 .193-.089.241-.178.29-.671.58-1.342.917-2.057.049-.045.049-.135.097-.18.145-.223.338-.357.627-.357.29 0 .483.134.58.402.338.716.627 1.476.965 2.192-.096.179 0 .268.193.268l2.317.134c.097 0 .242 0 .338.045.29.09.483.358.483.626zM49.759 14.425c-.146.145-.34.194-.534.145-.825-.096-1.65-.145-2.476-.242-.242-.048-.34.049-.437.242a47.592 47.592 0 0 1-1.262 2.082c-.145.242-.388.387-.68.339-.29-.049-.485-.242-.533-.581-.194-.823-.389-1.646-.534-2.469-.049-.194-.097-.242-.291-.29-.777-.194-1.554-.388-2.38-.533-.242-.048-.436-.145-.533-.339-.194-.29-.097-.677.243-.871.776-.436 1.504-.92 2.281-1.356a.266.266 0 0 0 .146-.242c-.049-.774-.146-1.597-.194-2.372-.049-.29-.049-.58.194-.774.243-.194.582-.242.825 0 .68.58 1.36 1.162 1.99 1.743.097.096.194.048.292.048.728-.29 1.456-.63 2.232-.92.049-.048.146-.048.195-.097.242-.096.485-.048.728.146.194.193.243.435.145.726-.34.774-.68 1.549-1.019 2.372-.049.145-.049.242.049.387.534.58 1.019 1.162 1.553 1.791.097.097.146.194.194.29.097.243.049.533-.194.775zM53.333 33c-.179 0-.313-.097-.447-.241a67.16 67.16 0 0 1-1.476-1.931c-.134-.193-.268-.193-.447-.145a149.8 149.8 0 0 1-2.192.58c-.268.096-.491 0-.67-.242-.135-.193-.135-.483 0-.773.402-.724.805-1.4 1.252-2.124.09-.144.09-.241 0-.386-.403-.676-.805-1.351-1.163-2.027a.777.777 0 0 1-.134-.628c.09-.338.402-.53.715-.434.805.193 1.566.434 2.37.627.135.049.18 0 .269-.096.447-.628.94-1.207 1.431-1.786.179-.242.358-.435.67-.387.314 0 .537.242.537.58.045.869.09 1.786.18 2.655 0 .145.089.193.178.241.671.29 1.342.58 2.057.917.045.049.135.049.18.097.223.145.357.338.357.627 0 .29-.134.483-.402.58-.716.338-1.476.627-2.192.965-.134.048-.223.145-.223.338l-.135 2.317c0 .097 0 .242-.044.338-.134.145-.403.338-.671.338zM43.575 49.759a.549.549 0 0 1-.145-.534c.096-.825.145-1.65.242-2.476.048-.242-.049-.34-.242-.437a47.592 47.592 0 0 1-2.082-1.262c-.242-.145-.387-.388-.339-.68.049-.29.242-.485.581-.533.823-.194 1.646-.389 2.469-.534.194-.049.242-.097.29-.291.194-.777.388-1.554.533-2.38.048-.242.145-.436.339-.533.29-.194.677-.097.871.243.436.776.92 1.504 1.356 2.281a.266.266 0 0 0 .242.146c.774-.049 1.597-.146 2.372-.194.29-.049.58-.049.774.194.194.243.242.582 0 .825-.58.68-1.162 1.36-1.743 1.99-.096.097-.048.194-.048.292.29.728.63 1.456.92 2.232.048.049.048.146.097.195.096.242.048.485-.146.728-.193.194-.435.243-.726.145-.774-.34-1.549-.68-2.372-1.019-.145-.049-.242-.049-.387.049-.58.534-1.162 1.019-1.791 1.553-.097.097-.194.146-.29.194-.243.097-.533.049-.775-.194zM25 53.333c0-.179.097-.313.241-.447a67.16 67.16 0 0 1 1.931-1.476c.193-.134.193-.268.145-.447a149.8 149.8 0 0 1-.58-2.192c-.096-.268 0-.491.242-.67.193-.135.483-.135.773 0 .724.402 1.4.805 2.124 1.252.144.09.241.09.386 0 .676-.403 1.351-.805 2.027-1.163a.777.777 0 0 1 .628-.134c.338.09.53.402.434.715-.193.805-.434 1.566-.627 2.37-.049.135 0 .18.096.269.628.447 1.207.94 1.786 1.431.242.179.435.358.387.67 0 .314-.242.537-.58.537-.869.045-1.786.09-2.655.18-.145 0-.193.089-.241.178-.29.671-.58 1.342-.917 2.057-.049.045-.049.135-.097.18-.145.223-.338.357-.627.357-.29 0-.483-.134-.58-.402-.338-.716-.627-1.476-.965-2.192-.048-.134-.145-.223-.338-.223l-2.317-.135c-.097 0-.242 0-.338-.044-.145-.134-.338-.403-.338-.671zM8.241 43.575a.549.549 0 0 1 .534-.145c.825.096 1.65.145 2.476.242.242.048.34-.049.437-.242.388-.678.825-1.404 1.262-2.082.145-.242.388-.387.68-.339.29.049.485.242.533.581.194.823.389 1.646.534 2.469.049.194.097.242.291.29.777.194 1.554.388 2.38.533.242.048.436.145.533.339.194.29.097.677-.243.871-.776.436-1.504.92-2.281 1.356a.266.266 0 0 0-.146.242c.049.774.146 1.597.194 2.372.049.29.049.58-.194.774-.243.194-.582.242-.825 0-.68-.58-1.36-1.162-1.99-1.743-.097-.096-.194-.048-.292-.048-.728.29-1.456.63-2.232.92-.049.048-.146.048-.195.097-.242.096-.485.048-.728-.146-.194-.193-.243-.435-.145-.726.34-.774.68-1.549 1.019-2.372.049-.145.049-.242-.049-.387-.534-.58-1.019-1.162-1.553-1.791-.097-.097-.146-.194-.194-.29-.097-.243-.049-.533.194-.775zM3.667 25c.179 0 .313.097.447.241.492.628.984 1.255 1.476 1.931.134.193.268.193.447.145a149.8 149.8 0 0 1 2.192-.58c.268-.096.491 0 .67.242.135.193.135.483 0 .773-.402.724-.805 1.4-1.252 2.124-.09.144-.09.241 0 .386.403.676.805 1.351 1.163 2.027a.777.777 0 0 1 .134.628c-.09.338-.402.53-.715.434-.805-.193-1.566-.434-2.37-.627-.135-.049-.18 0-.269.096-.447.628-.94 1.207-1.431 1.786-.179.242-.358.435-.67.387-.314 0-.537-.242-.537-.58-.045-.869-.09-1.786-.18-2.655 0-.145-.089-.193-.178-.241-.671-.29-1.342-.58-2.057-.917-.045-.049-.135-.049-.18-.097-.223-.145-.357-.338-.357-.627 0-.29.134-.483.402-.58.716-.338 1.476-.627 2.192-.965.179.096.268 0 .268-.193l.134-2.317c0-.097 0-.242.045-.338A.678.678 0 0 1 3.667 25zM14.425 8.241c.145.146.194.34.145.534-.096.825-.145 1.65-.242 2.476-.048.242.049.34.242.437.678.388 1.404.825 2.082 1.262.242.145.387.388.339.68-.049.29-.242.485-.581.533-.823.194-1.646.389-2.469.534-.194.049-.242.097-.29.291-.194.777-.388 1.554-.533 2.38-.048.242-.145.436-.339.533-.29.194-.677.097-.871-.243-.436-.776-.92-1.504-1.356-2.281a.266.266 0 0 0-.242-.146c-.774.049-1.597.146-2.372.194-.29.049-.58.049-.774-.194-.194-.243-.242-.582 0-.825.58-.68 1.162-1.36 1.743-1.99.096-.097.048-.194.048-.292-.29-.728-.63-1.456-.92-2.232-.048-.049-.048-.146-.097-.195-.096-.242-.048-.485.146-.728.193-.194.435-.243.726-.145.774.34 1.549.68 2.372 1.019.145.049.242.049.387-.049.58-.534 1.162-1.019 1.791-1.553.097-.097.194-.146.29-.194.243-.097.533-.049.775.194zM40.974 22.978l-.093-.092c-.046-.046-.046-.046-.092-.046l-.047-.046s-.046 0-.046-.046l-.14-.046c-.046-.046-.139-.046-.185-.092-1.115-.369-2.323-.185-3.437-.093h-.976c-.232 0-.51 0-.743.046h-.464c-.14 0-.279.047-.372.047h-.093c-.046 0-.046-.047-.046-.047l.325-1.104c.186-.691.418-1.382.604-2.072.325-.967.418-1.796.325-2.533-.093-.966-.697-1.887-1.533-2.394-.464-.276-1.022-.46-1.58-.46h-.138c-.511 0-.836.322-.883.829-.046.644-.14 1.243-.232 1.841-.14 1.013-.418 1.842-.836 2.533a4.96 4.96 0 0 1-.836 1.105c-.418.46-.883.966-1.393 1.519L26.9 23.116c-.278.322-.557.598-.836.875-.046.046-.139.138-.232.184a1.95 1.95 0 0 1-.65.414c-.14.046-.325.138-.557.184-.976.277-1.533.553-1.58 1.105 0 .323-.046.599-.046.875v9.899h1.626c.51.092 1.068.184 1.765.276l.325.046c1.347.23 2.647.414 3.901.599 3.112.368 6.827 1.243 9.103-1.52.93-1.15 1.022-2.762 1.208-4.143.325-2.256.743-4.558 1.068-6.814.047-.737-.325-1.612-1.022-2.118zM21.038 24h-4.076a.94.94 0 0 0-.962.964v12.072c0 .55.412.964.962.964h4.076a.94.94 0 0 0 .962-.964V24.964a.94.94 0 0 0-.962-.964z"/>
    </g>
</svg>
