<?xml version="1.0" encoding="UTF-8" standalone="no"?>
<svg width="20px" height="23px" viewBox="0 0 20 23" version="1.1" xmlns="http://www.w3.org/2000/svg" xmlns:xlink="http://www.w3.org/1999/xlink">
    <!-- Generator: Sketch 41.2 (35397) - http://www.bohemiancoding.com/sketch -->
    <title>icon-apple</title>
    <desc>Created with Sketch.</desc>
    <defs></defs>
    <g id="Page-1" stroke="none" stroke-width="1" fill="none" fill-rule="evenodd" opacity="0.800000012">
        <g id="Udviser-Home" transform="translate(-362.000000, -721.000000)" fill="#FFFFFF">
            <g id="icon-apple" transform="translate(362.000000, 721.000000)">
                <path d="M16.0363077,12.1935385 C16.0106538,9.34242308 18.3708077,7.95534615 18.4787308,7.89076923 C17.1420769,5.94196154 15.0703077,5.67569231 14.3422692,5.65446154 C12.6022308,5.47134615 10.9143846,6.69565385 10.028,6.69565385 C9.12392308,6.69565385 7.75896154,5.67215385 6.28784615,5.70223077 C4.39476923,5.73142308 2.62376923,6.82746154 1.65246154,8.52946154 C-0.352076923,11.9998077 1.14292308,17.0996154 3.06342308,19.9047308 C4.02411538,21.2785385 5.14669231,22.8124615 6.61603846,22.7585 C8.05353846,22.6992308 8.5905,21.8420385 10.3252308,21.8420385 C12.0440385,21.8420385 12.5482692,22.7585 14.0468077,22.724 C15.5895769,22.6992308 16.5608846,21.344 17.4879615,19.9578077 C18.5981538,18.3831923 19.044,16.8324615 19.0616923,16.7528462 C19.0254231,16.7404615 16.0655,15.6108077 16.0363077,12.1935385 Z" id="Shape"></path>
                <path d="M13.2055385,3.80915385 C13.9786923,2.84226923 14.5076923,1.52684615 14.3608462,0.191961538 C13.2418077,0.2415 11.8423462,0.966 11.0364615,1.91165385 C10.3234615,2.74496154 9.68653846,4.11080769 9.85107692,5.39526923 C11.1081154,5.48903846 12.3987692,4.761 13.2055385,3.80915385 Z" id="Shape"></path>
            </g>
        </g>
    </g>
</svg>