<?xml version="1.0" encoding="UTF-8" standalone="no"?>
<svg width="27px" height="37px" viewBox="0 0 27 37" version="1.1" xmlns="http://www.w3.org/2000/svg" xmlns:xlink="http://www.w3.org/1999/xlink">
    <!-- Generator: Sketch 41.2 (35397) - http://www.bohemiancoding.com/sketch -->
    <title>icon-package</title>
    <desc>Created with Sketch.</desc>
    <defs></defs>
    <g id="Page-1" stroke="none" stroke-width="1" fill="none" fill-rule="evenodd">
        <g id="Udviser-Home" transform="translate(-1170.000000, -307.000000)" fill="#FFFFFF">
            <g id="icon-package" transform="translate(1170.000000, 307.000000)">
                <path d="M21.0335652,7.97528184 C20.5791488,7.97528193 20.1895097,7.93560545 19.8491496,7.85715932 C19.5972876,7.7991102 19.4402299,7.54813205 19.4983515,7.29658394 C19.556473,7.04503583 19.8077643,6.8881739 20.0596264,6.94622302 C20.327013,7.00785026 20.6467128,7.04040489 21.033565,7.04040482 C21.7018618,7.0404047 22.2020342,6.9440185 22.5622928,6.77371537 C22.6160688,6.74829415 22.8763573,6.53757693 22.8763573,6.41110812 L22.8814192,4.41071348 C22.8738646,4.35766764 22.7345347,4.23381507 22.4113663,4.11412006 C21.9650312,3.94880659 21.3092083,3.85373854 20.5022101,3.85373854 C19.6924045,3.85373854 19.017433,3.95045965 18.5615784,4.11643969 C18.3729484,4.18512125 18.2368635,4.26074934 18.1280629,4.33926894 L18.1280629,6.41110812 C18.1280629,6.60662072 18.2646407,6.77533217 18.4516547,6.81762509 C18.648226,6.86207937 18.7998903,7.01839964 18.8381911,7.21602781 C18.8679094,7.36937111 18.8236451,8.8942553 18.8120839,8.9598678 C18.7779885,9.15336663 18.6350978,9.30980878 18.445295,9.36144224 C16.7731734,9.81632174 15.5917964,11.3404837 15.5917964,13.1011145 L15.5917964,19.0927474 C15.5917964,20.1669654 15.8829587,21.1731112 16.4211608,21.7371425 C17.2747458,22.6316925 17.1807572,29.2190717 16.4358339,29.9893078 C15.8947777,30.6072963 15.5917964,31.3979511 15.5917964,32.2371884 L15.5917964,34.3139849 C15.5917964,34.5600195 16.01107,34.9691805 16.7947852,35.314085 C17.7514654,35.7351095 19.0575837,35.9853188 20.50221,35.9853185 C21.8858891,35.9853182 23.1754617,35.6842194 24.1920524,35.1897537 C24.6083849,34.9872512 24.9514562,34.7633216 25.1826874,34.5525468 C25.2796878,34.4641278 25.3505079,34.3836222 25.4126238,34.3139849 L25.4126238,32.2371884 C25.4126238,31.3979511 25.1096424,30.6072963 24.5685863,29.9893078 C24.4946701,29.9048815 24.3796214,29.5658119 24.3704789,29.4882836 C24.2939002,28.8389002 24.2435214,28.0296277 24.2274488,27.2012439 C24.2220133,26.9210999 24.444992,26.6895976 24.7254855,26.6841689 C25.005979,26.6787402 25.2377703,26.9014409 25.2432058,27.1815849 C25.258671,27.9786664 25.3070252,28.7554168 25.3794525,29.3695966 C26.0523525,30.1687594 26.4285714,31.1743763 26.4285714,32.2371884 L26.4285714,34.3139849 C26.4285714,35.568805 23.4861245,36.9999994 20.5022102,37 C17.2778977,37.0000007 14.5758488,35.8108586 14.5758488,34.3139849 L14.5758488,32.2371884 C14.5758488,31.1499865 14.969533,30.1226351 15.6878726,29.3030803 C15.7953626,29.1918112 15.9858425,27.5900199 16.0093255,25.9441663 C16.0347274,24.163819 15.8731173,22.633571 15.6857082,22.4371677 C14.9374548,21.6530045 14.5758488,20.4034319 14.5758488,19.0927474 L14.5758488,13.1011145 C14.5758488,10.9584508 15.8849102,9.16449624 17.8789043,8.51977123 C17.9517871,8.49620578 17.8603663,7.51003629 17.8407564,7.40885139 C17.8407564,7.40885139 17.1121152,7.08316525 17.1121152,6.41110812 L17.1121157,4.33859091 C17.1134388,3.34977435 18.5160943,2.83905707 20.5022101,2.83905707 C22.4322412,2.83905707 23.7534545,3.3284077 23.8923049,4.33926894 L23.8923049,6.41110812 C23.8923049,6.90691988 23.6377869,7.35134555 23.2442732,7.609149 C23.1223643,7.68901538 23.1136863,8.46783669 23.2527796,8.519771 C25.1358933,9.22288365 26.4285714,11.0328995 26.4285714,13.1011145 L26.4285714,19.0927474 C26.4285714,20.4034319 26.0669653,21.6530045 25.318712,22.4371677 C25.2577592,22.5010458 25.1485352,22.927807 25.0819481,23.550855 C25.0521718,23.8294688 24.8018903,24.0312216 24.5229288,24.0014824 C24.2439673,23.9717432 24.0419627,23.7217736 24.071739,23.4431598 C24.0965401,23.2110985 24.125084,23.000981 24.159017,22.8121699 C23.8624573,22.92971 22.5751891,23.1385341 21.804377,23.138534 C21.033565,23.1385339 19.455614,23.0561248 19.302442,22.9923632 C19.0638546,22.8930454 18.9510548,22.6193602 19.0504965,22.3810702 C19.1499382,22.1427802 19.423965,22.0301209 19.6625523,22.1294387 C19.6880281,22.1400436 20.3559744,22.2036567 21.804377,22.203657 C22.886453,22.2036572 24.1590168,21.9062828 24.8747195,21.3510868 C25.2257606,20.7702018 25.4126238,19.9533184 25.4126238,19.0927474 L25.4126238,13.1011145 C25.4126238,11.3404837 24.2312468,9.81632174 22.5591252,9.36144224 C22.3585031,9.30686554 22.2114406,9.13568346 22.1879111,8.9293456 C22.1806209,8.86541595 22.1319932,8.12283594 22.1322145,7.88095671 C21.8065019,7.94336444 21.4413178,7.97528177 21.0335652,7.97528184 L21.0335652,7.97528184 Z M17.541171,12.5675673 C17.06608,13.0336976 16.7771042,13.6478411 16.7771042,14.4057246 C16.7771042,15.5766024 16.7771042,15.5766024 16.7771042,16.3662938 C16.7771042,16.7446229 16.7771042,16.7446229 16.7771042,16.8300121 C16.7771042,17.0881713 16.9866447,17.2974506 17.245126,17.2974506 C17.5036073,17.2974506 17.7131478,17.0881713 17.7131478,16.8300121 C17.7131478,16.7446229 17.7131478,16.7446229 17.7131478,16.3662937 C17.7131478,15.5766024 17.7131478,15.5766024 17.7131478,14.4057246 C17.7131478,13.9141899 17.8921938,13.5336739 18.1971392,13.23448 C18.3057736,13.1278945 18.4228852,13.0397893 18.5391237,12.9700728 C18.6053548,12.9303493 18.6525162,12.907202 18.6705808,12.899812 C18.9097749,12.8019606 19.0242567,12.528973 18.9262833,12.2900771 C18.8283098,12.0511811 18.5549815,11.9368419 18.3157875,12.0346933 C18.1081157,12.1196493 17.8240494,12.2900242 17.541171,12.5675673 L17.541171,12.5675673 L17.541171,12.5675673 L17.541171,12.5675673 Z M23.4599925,31.4641349 C22.988731,31.9538574 22.093368,32.2554828 20.5212786,32.255483 C19.0026233,32.2554832 18.4048073,32.0437991 17.5179759,31.4082588 C17.3079643,31.2577558 17.0155572,31.3057848 16.8648664,31.5155347 C16.7141756,31.7252845 16.7622645,32.0173271 16.9722761,32.1678302 C18.0111183,32.9123077 18.7963652,33.1903603 20.5212788,33.19036 C22.3277221,33.1903598 23.4661764,32.8068431 24.1348702,32.1119541 C24.3139838,31.925824 24.3081075,31.6299165 24.1217451,31.4510262 C23.9353828,31.2721359 23.639106,31.2780048 23.4599925,31.4641349 L23.4599925,31.4641349 Z M1.02987998,9.04894402 L1.06445348,32.7521007 L10.5120581,35.8572447 L10.5120581,34.0236671 C10.5120581,33.7434705 10.7394857,33.5163263 11.0200319,33.5163263 C11.3005781,33.5163263 11.5280058,33.7434705 11.5280058,34.0236671 L11.5280058,35.5965989 L13.2504029,34.5644486 C13.4909693,34.4202887 13.8029974,34.4981985 13.9473373,34.7384651 C14.0916771,34.9787316 14.0136701,35.2903709 13.7731037,35.4345308 L11.2853393,36.9253291 C11.2245371,36.9626043 11.1558121,36.9873339 11.0833816,36.996451 C11.0020397,37.004905 10.9294277,36.9969481 10.8613288,36.9746126 L0.365956771,33.5932282 C0.15613928,33.5256295 0.0139323192,33.3305769 0.0139323192,33.1103877 C0.0139323192,33.1103877 -0.0360394776,8.34355994 0.0532973684,8.20023351 C0.0532973684,8.20023351 3.16057391,3.2255843 3.19108374,3.19652976 L3.19108374,0.507469659 C3.19108374,0.193459652 3.47380065,-0.0451447002 3.78379699,0.0072379719 L14.3156554,1.78689415 C14.5600289,1.82818797 14.7388898,2.03958838 14.7388898,2.28712584 L14.7388898,5.084298 L16.2529175,6.08398781 C16.4869446,6.23851241 16.5512378,6.55325936 16.3965203,6.7869948 C16.2418029,7.02073024 15.9266632,7.08494331 15.6926361,6.93041871 L14.4479639,6.10858027 L12.1987982,9.70126903 L13.9762794,8.90239937 C14.2321155,8.7874166 14.5328399,8.90134232 14.6479661,9.15685958 C14.7630924,9.41237684 14.6490245,9.71272646 14.3931884,9.82770922 L11.5280058,11.1154345 L11.5280058,31.1170274 C11.5280058,31.397224 11.3005781,31.6243682 11.0200319,31.6243682 C10.7394857,31.6243682 10.5120581,31.397224 10.5120581,31.1170274 L10.5567994,11.1154348 L1.02987998,9.04894402 L1.02987998,9.04894402 Z M5.14721375,3.36200519 L4.20703139,3.17240969 L4.20703139,1.13025023 L13.7763895,2.72570465 L13.7229422,4.73074645 L10.39894,4.01444637 C10.37537,4.0093672 9.82638846,3.46895862 9.53317841,3.17901989 C9.12526465,2.70785852 8.54462075,2.38016657 7.85651482,2.29051763 C6.82119039,2.1556318 5.80409573,2.59489181 5.14721375,3.36200519 L5.14721375,3.36200519 L5.14721375,3.36200519 Z M3.79760074,4.11306296 L1.32452985,8.08070268 L10.6925018,10.1934148 L13.576338,5.73718544 L11.0735445,5.1978503 C11.1107275,5.39389393 11.1671914,6.23110867 11.1251578,6.42730085 C10.796201,7.96271074 9.29297296,9.03810629 7.74921391,8.83697975 C7.58939807,8.81615836 6.86721084,8.63634126 6.38552867,8.24792882 C5.90384649,7.85951639 5.8321082,7.74687819 5.5014083,7.44436681 C4.6757671,6.84936571 4.244379,5.80262528 4.48057093,4.70019652 C4.51119228,4.55727099 4.55198874,4.41833151 4.60204586,4.28403666 C4.21691031,4.20407296 3.7896128,4.11463131 3.79760074,4.11306296 L3.79760074,4.11306296 Z M10.1316995,6.21498572 C10.1406071,6.17340956 10.1131504,5.90167808 10.0815292,5.63389669 C9.80489588,6.7097259 8.94791865,7.54178319 7.91963504,7.83548406 C8.92268092,7.94456335 9.91568078,7.22325586 10.1316995,6.21498572 L10.1316995,6.21498572 Z M9.34787,5.25766161 C9.1051989,6.39033195 7.97836903,7.19645569 6.8514197,7.04963264 C5.76024628,6.90747059 5.07389698,5.9216002 5.30918186,4.82340514 C5.55185295,3.6907348 6.67868282,2.88461105 7.80563215,3.03143411 C8.89680558,3.17359615 9.58315487,4.15946654 9.34787,5.25766161 L9.34787,5.25766161 L9.34787,5.25766161 Z" id="Combined-Shape"></path>
            </g>
        </g>
    </g>
</svg>