<?xml version="1.0" encoding="UTF-8" standalone="no"?>
<svg width="36px" height="19px" viewBox="0 0 36 19" version="1.1" xmlns="http://www.w3.org/2000/svg" xmlns:xlink="http://www.w3.org/1999/xlink">
    <!-- Generator: Sketch 41.2 (35397) - http://www.bohemiancoding.com/sketch -->
    <title>icon-money</title>
    <desc>Created with Sketch.</desc>
    <defs></defs>
    <g id="Page-1" stroke="none" stroke-width="1" fill="none" fill-rule="evenodd">
        <g id="Udviser-Home" transform="translate(-1165.000000, -247.000000)" fill="#FFFFFF">
            <g id="icon-money" transform="translate(1165.000000, 247.000000)">
                <path d="M1.35714286,4.26463431 C1.35714286,2.65867362 2.65764226,1.35714286 4.26205793,1.35714286 L31.9142814,1.35714286 C33.5178941,1.35714286 34.8191964,2.65984565 34.8191964,4.26463431 L34.8191964,14.7353657 C34.8191964,16.3413264 33.518697,17.6428571 31.9142814,17.6428571 L4.26205793,17.6428571 C2.65844514,17.6428571 1.35714286,16.3401543 1.35714286,14.7353657 L1.35714286,4.26463431 Z M0.193877551,4.26463431 L0.193877551,14.7353657 C0.193877551,16.9823281 2.01571117,18.8061224 4.26205793,18.8061224 L31.9142814,18.8061224 C34.1613572,18.8061224 35.9824617,16.9835737 35.9824617,14.7353657 L35.9824617,4.26463431 C35.9824617,2.01767191 34.1606281,0.193877551 31.9142814,0.193877551 L4.26205793,0.193877551 C2.01498204,0.193877551 0.193877551,2.01642628 0.193877551,4.26463431 Z" id="Rectangle-14"></path>
                <path d="M11.7174745,6.18748851 L11.7174745,5.44498045 C11.7174745,4.80435118 11.1988799,4.28348214 10.5582139,4.28348214 L4.35218151,4.28348214 C3.710675,4.28348214 3.19292092,4.80382502 3.19292092,5.44498045 L3.19292092,13.5550195 C3.19292092,14.1956488 3.71151556,14.7165179 4.35218151,14.7165179 L10.5582139,14.7165179 C11.1997204,14.7165179 11.7174745,14.196175 11.7174745,13.5550195 L11.7174745,12.6898783 C11.7174745,12.5316032 11.7116729,12.432665 11.6827915,12.299416 C11.5792155,11.8215504 11.2214821,11.4812705 10.6568265,11.4812705 C9.84876918,11.4812705 9.11937275,10.5510282 9.11937275,9.5 C9.11937275,8.42854498 9.89876963,7.49782807 10.7868511,7.49782807 C11.3665392,7.49782807 11.6319797,7.088409 11.6986571,6.56437245 C11.7142623,6.44172695 11.7174745,6.34766594 11.7174745,6.18748851 Z M7.95610744,9.5 C7.95610744,11.1027816 9.08290081,12.5762059 10.5538529,12.6422291 C10.5540974,12.656208 10.5542092,12.6719613 10.5542092,12.6898783 L10.5542092,13.5532526 L4.35618622,13.5532526 L4.35618622,5.44674745 L10.5542092,5.44674745 L10.5542092,6.18748851 C10.5542092,6.25639737 10.5534681,6.30489823 10.5511737,6.34570376 C9.083635,6.48503348 7.95610744,7.91130339 7.95610744,9.5 Z" id="Combined-Shape"></path>
                <path d="M25.6221301,5.44674745 L31.8201531,5.44674745 L31.8201531,13.5532526 L25.6221301,13.5532526 L25.6221301,12.6898783 C25.6221301,12.6719613 25.6222419,12.656208 25.6224864,12.6422291 C27.0934385,12.5762059 28.2202318,11.1027816 28.2202318,9.5 C28.2202318,7.91130339 27.0927043,6.48503348 25.6251656,6.34570376 C25.6228712,6.30489823 25.6221301,6.25639737 25.6221301,6.18748851 L25.6221301,5.44674745 Z M24.4588648,6.18748851 C24.4588648,6.34766594 24.462077,6.44172695 24.4776822,6.56437245 C24.5443595,7.088409 24.8098001,7.49782807 25.3894882,7.49782807 C26.2775697,7.49782807 27.0569665,8.42854498 27.0569665,9.5 C27.0569665,10.5510282 26.3275701,11.4812705 25.5195128,11.4812705 C24.9548572,11.4812705 24.5971238,11.8215504 24.4935478,12.299416 C24.4646664,12.432665 24.4588648,12.5316032 24.4588648,12.6898783 L24.4588648,13.5550195 C24.4588648,14.196175 24.9766189,14.7165179 25.6181254,14.7165179 L31.8241578,14.7165179 C32.4648237,14.7165179 32.9834184,14.1956488 32.9834184,13.5550195 L32.9834184,5.44498045 C32.9834184,4.80382502 32.4656643,4.28348214 31.8241578,4.28348214 L25.6181254,4.28348214 C24.9774594,4.28348214 24.4588648,4.80435118 24.4588648,5.44498045 L24.4588648,6.18748851 Z" id="Combined-Shape-Copy-17"></path>
                <path d="M18.2244898,15.8070791 C21.2776771,15.8070791 23.713648,12.9651131 23.713648,9.5 C23.713648,6.03488689 21.2776771,3.19292092 18.2244898,3.19292092 C15.1713025,3.19292092 12.7353316,6.03488689 12.7353316,9.5 C12.7353316,12.9651131 15.1713025,15.8070791 18.2244898,15.8070791 Z M18.2244898,14.6438138 C15.8569741,14.6438138 13.8985969,12.3590404 13.8985969,9.5 C13.8985969,6.64095961 15.8569741,4.35618622 18.2244898,4.35618622 C20.5920055,4.35618622 22.5503827,6.64095961 22.5503827,9.5 C22.5503827,12.3590404 20.5920055,14.6438138 18.2244898,14.6438138 Z" id="Oval-5"></path>
            </g>
        </g>
    </g>
</svg>