<?xml version="1.0" encoding="UTF-8" standalone="no"?>
<svg width="19px" height="22px" viewBox="0 0 19 22" version="1.1" xmlns="http://www.w3.org/2000/svg" xmlns:xlink="http://www.w3.org/1999/xlink">
    <!-- Generator: Sketch 41.2 (35397) - http://www.bohemiancoding.com/sketch -->
    <title>icon-googleplay</title>
    <desc>Created with Sketch.</desc>
    <defs></defs>
    <g id="Page-1" stroke="none" stroke-width="1" fill="none" fill-rule="evenodd" opacity="0.800000012">
        <g id="Udviser-Home" transform="translate(-400.000000, -723.000000)" fill="#FFFFFF">
            <g id="icon-googleplay" transform="translate(400.000000, 723.000000)">
                <path d="M0.61886188,22 C0.243998006,21.8981807 0,21.5228882 0,20.94214 L0,1.77249757 C0,1.23463628 0.206596687,0.871888029 0.534092355,0.739999771 L0.534092355,0.739999771 L9.87615016,11.4229691 L0.61886188,22 L0.61886188,22 Z M1.90486328,21.5930899 L13.1497526,15.1664479 L10.4109,12.0344742 L1.90486328,21.5930899 L1.90486328,21.5930899 Z M13.2271859,7.59420118 L2.13900623,1.25564841 L10.4271136,10.793459 L13.2271859,7.59420118 L13.2271859,7.59420118 Z M13.9795099,8.02426684 L18.3232482,10.5073628 C19.145683,10.9775073 19.1532042,11.735375 18.3232482,12.2097088 L13.8696176,14.755033 L10.9647176,11.4121244 L13.9795099,8.02426684 L13.9795099,8.02426684 Z" id="google-play"></path>
            </g>
        </g>
    </g>
</svg>