<?xml version="1.0" encoding="UTF-8" standalone="no"?>
<svg width="14px" height="21px" viewBox="0 0 14 21" version="1.1" xmlns="http://www.w3.org/2000/svg" xmlns:xlink="http://www.w3.org/1999/xlink">
    <!-- Generator: Sketch 42 (36781) - http://www.bohemiancoding.com/sketch -->
    <title>angellist</title>
    <desc>Created with Sketch.</desc>
    <defs></defs>
    <g id="Page-1" stroke="none" stroke-width="1" fill="none" fill-rule="evenodd">
        <g id="Udviser-Home-1440" transform="translate(-213.000000, -22.000000)" fill="#FFFFFF">
            <g id="angellist" transform="translate(213.000000, 22.000000)">
                <path d="M3.43579749,20.2943042 C3.33987421,20.259423 3.18290885,20.0762968 3.09570586,19.8931705 C2.77305483,19.2129872 3.10442616,17.9311034 4.8484858,13.1262191 C5.08393386,12.4547561 5.18857743,12.3501125 5.38914429,12.5506794 C5.48506757,12.6466027 5.98212457,12.6640433 6.88903559,12.5942809 C7.17680543,12.56812 7.15936483,12.742526 6.71462962,13.972088 C6.53150336,14.5040262 6.23501322,15.3411748 6.06060726,15.8469521 C5.11881505,18.6112867 4.63047835,19.7449254 4.26422582,20.0937374 C4.01133718,20.3204651 3.68868614,20.3989478 3.43579749,20.2943042 Z M11.8072838,19.5356383 C11.4846327,19.2129872 10.9439743,18.1752717 10.6474841,17.3032419 C10.5602811,17.0590736 10.2463504,16.1434423 9.94986026,15.2801327 C9.02550865,12.6117215 8.98190716,12.4896373 8.98190716,12.4373155 C8.98190716,12.393714 9.65337012,12.245469 10.5428405,12.0972239 C10.9788554,12.0274615 10.935254,11.9489788 11.5282342,13.6232761 C12.4002641,16.0998408 12.9758037,17.9049425 13.0630067,18.4892025 C13.246133,19.6926036 12.5485091,20.2768636 11.8072838,19.5356383 Z M6.05188696,11.6873699 C5.53738936,11.5914466 5.3629834,10.8938227 5.68563443,10.2659613 C6.16525083,9.32416907 7.68258272,8.88815415 10.5253999,8.87071356 C11.2840659,8.87071356 11.3363877,8.86199326 11.4759124,8.6527061 C11.5543951,8.53062193 11.5979966,8.38237686 11.5718357,8.33005507 C11.5282342,8.20797089 10.9439743,7.90276046 10.089385,7.55394853 C8.99062745,7.10049302 7.86570898,5.87965127 7.45585497,4.69369072 C7.18552572,3.91758418 7.18552572,3.58621284 7.45585497,2.67930183 C7.69130302,1.90319529 7.73490451,1.45846008 7.57793914,1.45846008 C7.52561735,1.45846008 7.40353318,1.50206157 7.2988896,1.56310366 C6.77567171,1.8334329 6.44430038,2.53105676 6.38325829,3.51645046 L6.3396568,4.23151491 L5.80771861,4.19663372 L5.27578042,4.17047282 L5.30194131,3.85654209 C5.3629834,3.15891823 4.90080759,2.53105676 4.18574314,2.3217696 C3.08698557,1.99039827 1.05515608,3.57749255 0.950512505,4.83321549 C0.92435161,5.21690861 0.950512505,5.46979726 1.02899519,5.46979726 C1.06387638,5.46979726 1.24700264,5.2605101 1.4388492,5.01634175 C2.51144588,3.56005195 3.4096366,3.06299495 4.04621837,3.56005195 C4.3775897,3.82166089 4.34270851,4.17047282 3.8979733,4.87681698 C3.00850288,6.29822559 1.88358441,7.47546584 1.42140861,7.47546584 C0.68018326,7.47546584 0.00872029821,6.53367364 -7.99360578e-15,5.49595815 C-7.99360578e-15,4.47568326 0.671462962,3.07171525 1.68301755,2.01655917 C2.72073304,0.917801591 3.9154139,0.316101015 5.56355026,0.0544920686 C6.78439201,-0.137354492 8.64181553,0.19401684 9.67081071,0.786997118 C11.2753456,1.71134873 12.5397888,3.3246039 13.1327691,5.19074771 C13.5164622,6.38542857 13.6123855,8.47830014 13.333336,9.52473592 C13.0891676,10.4403672 12.3828235,10.8589415 10.2899519,11.3472782 C9.00806805,11.6524887 6.76695141,11.8268947 6.05188696,11.6873699 Z M2.65097066,10.7804589 C2.27599783,10.5014093 2.00566859,10.0566741 2.00566859,9.70786219 C2.00566859,9.07128042 3.19162914,7.187696 4.28166642,6.07149783 C4.83104521,5.51339875 5.41530519,5.12098533 5.70307503,5.12098533 C5.92108248,5.12098533 6.36581769,5.63548292 6.36581769,5.89709187 C6.36581769,6.50751274 5.48506757,8.52190163 4.70896103,9.68170129 C3.95029509,10.8240604 3.23523064,11.1990332 2.65097066,10.7804589 Z M6.56638455,8.24285209 C6.8018326,7.6934733 7.15064453,6.7429608 7.15064453,6.63831722 C7.15064453,6.42030976 7.3076099,6.50751274 7.82210749,7.02201034 C8.10115704,7.30105988 8.43252837,7.60627032 8.57205314,7.684753 C8.70285761,7.77195598 8.80750119,7.87659956 8.80750119,7.91148076 C8.80750119,7.94636195 8.45868926,8.02484463 8.02267435,8.07716642 C7.59537974,8.12948821 7.14192423,8.21669119 7.01111976,8.26029268 C6.70590932,8.38237686 6.51406276,8.36493626 6.56638455,8.24285209 Z" id="Combined-Shape" transform="translate(6.746948, 10.170000) rotate(-180.000000) translate(-6.746948, -10.170000) "></path>
            </g>
        </g>
    </g>
</svg>