<?xml version="1.0" encoding="UTF-8" standalone="no"?>
<svg width="29px" height="29px" viewBox="0 0 29 29" version="1.1" xmlns="http://www.w3.org/2000/svg" xmlns:xlink="http://www.w3.org/1999/xlink">
    <!-- Generator: Sketch 41.2 (35397) - http://www.bohemiancoding.com/sketch -->
    <title>icon-movie</title>
    <desc>Created with Sketch.</desc>
    <defs></defs>
    <g id="Page-1" stroke="none" stroke-width="1" fill="none" fill-rule="evenodd">
        <g id="Udviser-Home" transform="translate(-1169.000000, -172.000000)" fill="#FFFFFF">
            <g id="icon-movie" transform="translate(1169.000000, 172.000000)">
                <path d="M14.5,28.8457447 C22.422936,28.8457447 28.8457447,22.422936 28.8457447,14.5 C28.8457447,6.57706399 22.422936,0.154255319 14.5,0.154255319 C6.57706399,0.154255319 0.154255319,6.57706399 0.154255319,14.5 C0.154255319,22.422936 6.57706399,28.8457447 14.5,28.8457447 Z M14.5,27.9202128 C7.08822115,27.9202128 1.07978723,21.9117788 1.07978723,14.5 C1.07978723,7.08822115 7.08822115,1.07978723 14.5,1.07978723 C21.9117788,1.07978723 27.9202128,7.08822115 27.9202128,14.5 C27.9202128,21.9117788 21.9117788,27.9202128 14.5,27.9202128 Z" id="Oval-6"></path>
                <path d="M14.5,17.1223404 C15.7778929,17.1223404 16.8138298,16.0864035 16.8138298,14.8085106 C16.8138298,13.5306177 15.7778929,12.4946809 14.5,12.4946809 C13.2221071,12.4946809 12.1861702,13.5306177 12.1861702,14.8085106 C12.1861702,16.0864035 13.2221071,17.1223404 14.5,17.1223404 Z M14.5,16.1968085 C13.7332643,16.1968085 13.1117021,15.5752464 13.1117021,14.8085106 C13.1117021,14.0417749 13.7332643,13.4202128 14.5,13.4202128 C15.2667357,13.4202128 15.8882979,14.0417749 15.8882979,14.8085106 C15.8882979,15.5752464 15.2667357,16.1968085 14.5,16.1968085 Z" id="Oval-6-Copy"></path>
                <path d="M14.6542553,9.40957447 C16.5284982,9.40957447 18.0478723,7.89020037 18.0478723,6.01595745 C18.0478723,4.14171452 16.5284982,2.62234043 14.6542553,2.62234043 C12.7800124,2.62234043 11.2606383,4.14171452 11.2606383,6.01595745 C11.2606383,7.89020037 12.7800124,9.40957447 14.6542553,9.40957447 Z M14.6542553,8.48404255 C13.2911696,8.48404255 12.1861702,7.37904321 12.1861702,6.01595745 C12.1861702,4.65287168 13.2911696,3.54787234 14.6542553,3.54787234 C16.0173411,3.54787234 17.1223404,4.65287168 17.1223404,6.01595745 C17.1223404,7.37904321 16.0173411,8.48404255 14.6542553,8.48404255 Z" id="Oval-6-Copy-2"></path>
                <path d="M21.75,14.037234 C23.6242429,14.037234 25.143617,12.5178599 25.143617,10.643617 C25.143617,8.76937409 23.6242429,7.25 21.75,7.25 C19.8757571,7.25 18.356383,8.76937409 18.356383,10.643617 C18.356383,12.5178599 19.8757571,14.037234 21.75,14.037234 Z M21.75,13.1117021 C20.3869142,13.1117021 19.2819149,12.0067028 19.2819149,10.643617 C19.2819149,9.28053126 20.3869142,8.17553191 21.75,8.17553191 C23.1130858,8.17553191 24.2180851,9.28053126 24.2180851,10.643617 C24.2180851,12.0067028 23.1130858,13.1117021 21.75,13.1117021 Z" id="Oval-6-Copy-3"></path>
                <path d="M6.94148936,14.037234 C8.81573229,14.037234 10.3351064,12.5178599 10.3351064,10.643617 C10.3351064,8.76937409 8.81573229,7.25 6.94148936,7.25 C5.06724643,7.25 3.54787234,8.76937409 3.54787234,10.643617 C3.54787234,12.5178599 5.06724643,14.037234 6.94148936,14.037234 Z M6.94148936,13.1117021 C5.5784036,13.1117021 4.47340426,12.0067028 4.47340426,10.643617 C4.47340426,9.28053126 5.5784036,8.17553191 6.94148936,8.17553191 C8.30457513,8.17553191 9.40957447,9.28053126 9.40957447,10.643617 C9.40957447,12.0067028 8.30457513,13.1117021 6.94148936,13.1117021 Z" id="Oval-6-Copy-4"></path>
                <path d="M7.25,22.6755319 C9.12424293,22.6755319 10.643617,21.1561578 10.643617,19.2819149 C10.643617,17.407672 9.12424293,15.8882979 7.25,15.8882979 C5.37575707,15.8882979 3.85638298,17.407672 3.85638298,19.2819149 C3.85638298,21.1561578 5.37575707,22.6755319 7.25,22.6755319 Z M7.25,21.75 C5.88691423,21.75 4.78191489,20.6450007 4.78191489,19.2819149 C4.78191489,17.9188291 5.88691423,16.8138298 7.25,16.8138298 C8.61308577,16.8138298 9.71808511,17.9188291 9.71808511,19.2819149 C9.71808511,20.6450007 8.61308577,21.75 7.25,21.75 Z" id="Oval-6-Copy-5"></path>
                <path d="M14.6542553,26.6861702 C16.5284982,26.6861702 18.0478723,25.1667961 18.0478723,23.2925532 C18.0478723,21.4183103 16.5284982,19.8989362 14.6542553,19.8989362 C12.7800124,19.8989362 11.2606383,21.4183103 11.2606383,23.2925532 C11.2606383,25.1667961 12.7800124,26.6861702 14.6542553,26.6861702 Z M14.6542553,25.7606383 C13.2911696,25.7606383 12.1861702,24.655639 12.1861702,23.2925532 C12.1861702,21.9294674 13.2911696,20.8244681 14.6542553,20.8244681 C16.0173411,20.8244681 17.1223404,21.9294674 17.1223404,23.2925532 C17.1223404,24.655639 16.0173411,25.7606383 14.6542553,25.7606383 Z" id="Oval-6-Copy-6"></path>
                <path d="M21.75,22.6755319 C23.6242429,22.6755319 25.143617,21.1561578 25.143617,19.2819149 C25.143617,17.407672 23.6242429,15.8882979 21.75,15.8882979 C19.8757571,15.8882979 18.356383,17.407672 18.356383,19.2819149 C18.356383,21.1561578 19.8757571,22.6755319 21.75,22.6755319 Z M21.75,21.75 C20.3869142,21.75 19.2819149,20.6450007 19.2819149,19.2819149 C19.2819149,17.9188291 20.3869142,16.8138298 21.75,16.8138298 C23.1130858,16.8138298 24.2180851,17.9188291 24.2180851,19.2819149 C24.2180851,20.6450007 23.1130858,21.75 21.75,21.75 Z" id="Oval-6-Copy-7"></path>
            </g>
        </g>
    </g>
</svg>