<svg xmlns="http://www.w3.org/2000/svg" width="40" height="40" viewBox="0 0 40 40">
    <g fill="#00F7FF" fill-rule="nonzero">
        <path d="M18.276.293C7.404 1.243-.658 10.853.293 21.724c.95 10.872 10.56 18.934 21.431 17.983 10.872-.95 18.934-10.56 17.983-21.431C38.757 7.404 29.147-.658 18.276.293zm3.259 37.249c-9.66.845-18.232-6.349-19.077-16.007-.845-9.66 6.349-18.232 16.007-19.077 9.66-.845 18.232 6.349 19.077 16.007.845 9.66-6.349 18.232-16.007 19.077z"/>
        <path d="M27.645 18.59l-11.92-5.548a.79.79 0 0 0-.866.076c-.245.196-.395.47-.369.774l1.145 13.08c.026.303.226.591.497.699a.839.839 0 0 0 .445.092c.13-.012.299-.07.421-.168l10.776-7.533c.245-.196.395-.471.369-.774-.027-.304-.226-.592-.498-.699z"/>
    </g>
</svg>
